<svg xmlns="http://www.w3.org/2000/svg" xmlns:xlink="http://www.w3.org/1999/xlink" width="500" zoomAndPan="magnify" viewBox="0 0 375 374.999991" height="500" preserveAspectRatio="xMidYMid meet" version="1.0"><defs><clipPath id="4cb18fcec0"><path d="M 85 27.074219 L 290 27.074219 L 290 348.007812 L 85 348.007812 Z M 85 27.074219 " clip-rule="nonzero"/></clipPath></defs><g clip-path="url(#4cb18fcec0)"><path fill="#e92026" d="M 190.378906 27.050781 C 189.449219 27.027344 188.492188 27.015625 187.535156 27.015625 C 186.585938 27.015625 185.632812 27.027344 184.683594 27.050781 C 109.355469 28.964844 62.8125 110.316406 97.832031 177.039062 L 124.753906 228.359375 L 187.535156 348.007812 L 209.617188 305.910156 C 200.59375 289.140625 191.539062 272.371094 182.503906 255.601562 C 168.691406 229.984375 154.886719 204.363281 141.074219 178.765625 C 134.0625 165.757812 127.375 152.496094 125.542969 137.621094 C 121.128906 101.738281 151.730469 69.796875 187.289062 69.660156 C 222.152344 69.523438 250.449219 97.722656 250.449219 132.542969 C 250.449219 167.277344 222.269531 195.429688 187.535156 195.429688 C 186.386719 195.429688 185.253906 195.398438 184.117188 195.339844 L 225.984375 274.75 L 250.332031 228.359375 L 277.230469 177.039062 C 312.257812 110.316406 265.710938 28.964844 190.378906 27.050781 " fill-opacity="1" fill-rule="nonzero"/></g></svg>