<svg xmlns="http://www.w3.org/2000/svg" xmlns:xlink="http://www.w3.org/1999/xlink" width="500" zoomAndPan="magnify" viewBox="0 0 375 149.999998" height="200" preserveAspectRatio="xMidYMid meet" version="1.0"><defs><g/><clipPath id="f728ed2a4a"><path d="M 10 1.921875 L 103 1.921875 L 103 148.199219 L 10 148.199219 Z M 10 1.921875 " clip-rule="nonzero"/></clipPath></defs><g fill="#1b0000" fill-opacity="1"><g transform="translate(124.109132, 60.575223)"><g><path d="M 13.140625 0 L 13.140625 -11.640625 L 21.09375 -11.640625 C 29.25 -11.640625 35.097656 -17.175781 35.097656 -25.617188 C 35.097656 -33.484375 29.191406 -39.191406 20.980469 -39.191406 L 4.003906 -39.191406 L 4.003906 0 Z M 13.140625 -31.066406 L 20.605469 -31.066406 C 23.601562 -31.066406 25.964844 -28.355469 25.964844 -25.617188 C 25.964844 -22.304688 23.574219 -19.738281 20.605469 -19.738281 L 13.140625 -19.738281 Z M 13.140625 -31.066406 "/></g></g></g><g fill="#1b0000" fill-opacity="1"><g transform="translate(165.764538, 60.575223)"><g><path d="M 13.140625 0 L 13.140625 -39.191406 L 4.003906 -39.191406 L 4.003906 0 Z M 13.140625 0 "/></g></g></g><g fill="#1b0000" fill-opacity="1"><g transform="translate(188.837413, 60.575223)"><g><path d="M 13.140625 0 L 13.140625 -24.351562 L 13.167969 -24.351562 L 31.902344 0 L 39.796875 0 L 39.796875 -39.191406 L 30.660156 -39.191406 L 30.660156 -14.871094 L 11.988281 -39.191406 L 4.003906 -39.191406 L 4.003906 0 Z M 13.140625 0 "/></g></g></g><g fill="#1b0000" fill-opacity="1"><g transform="translate(238.530833, 60.575223)"><g/></g></g><g fill="#1b0000" fill-opacity="1"><g transform="translate(258.607457, 60.575223)"><g><path d="M 13.140625 0 L 13.140625 -24.726562 L 23.082031 -10.546875 L 25.386719 -10.546875 L 35.445312 -24.640625 L 35.445312 0 L 44.550781 0 L 44.550781 -39.191406 L 36.597656 -39.191406 L 24.234375 -22.363281 L 24.234375 -22.332031 L 12.046875 -39.191406 L 4.003906 -39.191406 L 4.003906 0 Z M 13.140625 0 "/></g></g></g><g fill="#1b0000" fill-opacity="1"><g transform="translate(313.054545, 60.575223)"><g><path d="M 24.464844 0 L 24.4375 -14.871094 L 39.566406 -39.191406 L 28.902344 -39.191406 L 19.941406 -22.910156 L 10.863281 -39.191406 L 0.289062 -39.191406 L 15.332031 -14.8125 L 15.332031 0 Z M 24.464844 0 "/></g></g></g><g fill="#1b0000" fill-opacity="1"><g transform="translate(124.109132, 119.30465)"><g><path d="M 21.640625 0 L 29.480469 -26.742188 L 37.289062 0 L 46.078125 0 L 58.644531 -39.21875 L 48.988281 -39.21875 L 42.390625 -16.570312 L 41.382812 -12.277344 L 41.296875 -12.277344 L 40.515625 -16.3125 L 34.265625 -39.191406 L 24.640625 -39.191406 L 18.355469 -16.222656 L 17.695312 -12.277344 L 17.550781 -12.277344 L 16.65625 -16.136719 L 9.914062 -39.21875 L 0.289062 -39.21875 L 12.851562 0 Z M 21.640625 0 "/></g></g></g><g fill="#1b0000" fill-opacity="1"><g transform="translate(188.927869, 119.30465)"><g><path d="M 22.824219 0.894531 C 34.550781 0.894531 44.121094 -8.269531 44.121094 -19.652344 C 44.121094 -31.066406 34.550781 -40.171875 22.824219 -40.171875 C 11.035156 -40.171875 1.5 -31.066406 1.5 -19.652344 C 1.5 -8.269531 11.035156 0.894531 22.824219 0.894531 Z M 22.824219 -7.464844 C 16.078125 -7.464844 10.632812 -12.5625 10.632812 -19.625 C 10.632812 -26.714844 16.023438 -31.8125 22.824219 -31.8125 C 29.59375 -31.8125 35.011719 -26.714844 35.011719 -19.625 C 35.011719 -12.5625 29.59375 -7.464844 22.824219 -7.464844 Z M 22.824219 -7.464844 "/></g></g></g><g fill="#1b0000" fill-opacity="1"><g transform="translate(240.465135, 119.30465)"><g><path d="M 13.140625 0 L 13.140625 -13.113281 L 18.960938 -13.113281 L 25.820312 0 L 36.28125 0 L 27.925781 -14.554688 C 32.449219 -16.484375 35.359375 -20.660156 35.359375 -25.992188 C 35.359375 -33.832031 29.480469 -39.191406 21.210938 -39.191406 L 4.003906 -39.191406 L 4.003906 0 Z M 13.140625 -31.066406 L 20.835938 -31.066406 C 23.832031 -31.066406 26.222656 -28.730469 26.222656 -25.992188 C 26.222656 -22.9375 23.859375 -20.75 20.835938 -20.75 L 13.140625 -20.75 Z M 13.140625 -31.066406 "/></g></g></g><g fill="#1b0000" fill-opacity="1"><g transform="translate(283.359361, 119.30465)"><g><path d="M 19.96875 0 C 32.535156 0 40.890625 -7.839844 40.890625 -19.625 C 40.890625 -31.351562 32.476562 -39.191406 19.882812 -39.191406 L 4.003906 -39.191406 L 4.003906 0 Z M 13.027344 -31.09375 L 19.625 -31.09375 C 27.492188 -31.09375 31.699219 -26.511719 31.699219 -19.507812 C 31.699219 -12.390625 27.261719 -8.097656 19.652344 -8.097656 L 13.027344 -8.097656 Z M 13.027344 -31.09375 "/></g></g></g><g fill="#1b0000" fill-opacity="1"><g transform="translate(331.641086, 119.30465)"><g><path d="M 18.242188 0.980469 C 27.953125 0.980469 34.609375 -3.285156 34.609375 -11.125 C 34.609375 -18.761719 28.527344 -22.074219 20.660156 -23.660156 C 14.496094 -24.8125 11.902344 -26.050781 11.902344 -28.558594 C 11.902344 -30.34375 12.910156 -32.21875 17.78125 -32.21875 C 22.5625 -32.21875 24.121094 -30.027344 24.121094 -27.835938 L 33.253906 -27.835938 C 33.253906 -35.328125 28.15625 -40.171875 17.894531 -40.171875 C 7.75 -40.171875 2.765625 -35.445312 2.765625 -28.617188 C 2.765625 -20.316406 10.894531 -17.722656 17.492188 -16.136719 C 22.5625 -14.984375 25.359375 -13.859375 25.359375 -11.152344 C 25.359375 -8.183594 23.3125 -6.6875 18.210938 -6.6875 C 13.542969 -6.6875 10.921875 -8.875 10.921875 -12.132812 L 1.785156 -12.132812 C 1.785156 -5.792969 6.222656 0.980469 18.242188 0.980469 Z M 18.242188 0.980469 "/></g></g></g><g clip-path="url(#f728ed2a4a)"><path fill="#e92026" d="M 58.019531 1.910156 C 57.597656 1.902344 57.164062 1.894531 56.730469 1.894531 C 56.296875 1.894531 55.867188 1.902344 55.4375 1.910156 C 21.25 2.785156 0.125 39.863281 16.015625 70.273438 L 28.238281 93.664062 L 56.730469 148.199219 L 66.75 129.011719 C 62.65625 121.367188 58.546875 113.726562 54.445312 106.082031 C 48.175781 94.40625 41.910156 82.730469 35.644531 71.0625 C 32.460938 65.132812 29.425781 59.085938 28.59375 52.308594 C 26.589844 35.953125 40.480469 21.394531 56.617188 21.332031 C 72.441406 21.269531 85.28125 34.125 85.28125 49.992188 C 85.28125 65.824219 72.492188 78.65625 56.730469 78.65625 C 56.207031 78.65625 55.695312 78.640625 55.175781 78.617188 L 74.179688 114.808594 L 85.230469 93.664062 L 97.4375 70.273438 C 113.335938 39.863281 92.210938 2.785156 58.019531 1.910156 " fill-opacity="1" fill-rule="nonzero"/></g></svg>